<svg width="15" height="14" viewBox="0 0 15 14" fill="none" xmlns="http://www.w3.org/2000/svg">
<path d="M11.2525 5.65692L7.3025 1.70692C7.12035 1.51832 7.01955 1.26571 7.02183 1.00352C7.02411 0.741321 7.12928 0.490508 7.31469 0.3051C7.50009 0.119692 7.75091 0.0145233 8.0131 0.0122448C8.2753 0.00996641 8.5279 0.110761 8.7165 0.292919L14.3735 5.94992C14.4667 6.04257 14.5406 6.15273 14.5911 6.27407C14.6416 6.3954 14.6675 6.52551 14.6675 6.65692C14.6675 6.78833 14.6416 6.91844 14.5911 7.03977C14.5406 7.16111 14.4667 7.27127 14.3735 7.36392L8.7165 13.0209C8.62426 13.1164 8.51391 13.1926 8.39191 13.245C8.2699 13.2974 8.13868 13.325 8.00591 13.3262C7.87313 13.3273 7.74145 13.302 7.61855 13.2517C7.49565 13.2015 7.384 13.1272 7.29011 13.0333C7.19622 12.9394 7.12196 12.8278 7.07168 12.7049C7.0214 12.582 6.9961 12.4503 6.99725 12.3175C6.99841 12.1847 7.02599 12.0535 7.0784 11.9315C7.13081 11.8095 7.20699 11.6992 7.3025 11.6069L11.2525 7.65692H1.6665C1.40129 7.65692 1.14693 7.55156 0.959397 7.36403C0.771861 7.17649 0.666504 6.92214 0.666504 6.65692C0.666504 6.3917 0.771861 6.13735 0.959397 5.94981C1.14693 5.76228 1.40129 5.65692 1.6665 5.65692H11.2525Z" fill="#9333EA"/>
</svg>
